<svg xmlns="http://www.w3.org/2000/svg" xmlns:xlink="http://www.w3.org/1999/xlink" zoomAndPan="magnify" viewBox="0 0 154 34" preserveAspectRatio="xMidYMid meet" version="1.0"><defs><g/><clipPath id="3e87c608be"><path d="M 4 1.957031 L 47 1.957031 L 47 35.015625 L 4 35.015625 Z M 4 1.957031 " clip-rule="nonzero"/></clipPath></defs><g clip-path="url(#3e87c608be)"><path fill="#3972bf" d="M 46.554688 25.460938 L 44.824219 17.316406 C 43.929688 13.105469 40.199219 10.089844 35.878906 10.089844 L 34.339844 10.089844 L 34.339844 5.171875 C 34.339844 3.417969 32.910156 1.992188 31.148438 1.992188 L 20.296875 1.992188 C 18.535156 1.992188 17.105469 3.417969 17.105469 5.171875 L 17.105469 10.089844 L 15.566406 10.089844 C 11.25 10.089844 7.519531 13.105469 6.625 17.316406 L 4.890625 25.460938 C 3.84375 30.398438 7.621094 35.046875 12.679688 35.046875 L 38.765625 35.046875 C 43.828125 35.046875 47.601562 30.398438 46.554688 25.460938 Z M 31.691406 10.089844 L 19.757812 10.089844 L 19.757812 7.816406 C 19.757812 6.0625 21.1875 4.636719 22.949219 4.636719 L 28.5 4.636719 C 30.257812 4.636719 31.691406 6.0625 31.691406 7.816406 L 31.691406 10.089844 " fill-opacity="1" fill-rule="nonzero"/></g><path fill="#ffffff" d="M 26.460938 21.398438 C 24.945312 20.773438 24.507812 20.402344 24.507812 19.738281 C 24.507812 18.515625 26.21875 18.105469 28.410156 19.351562 L 29.109375 17.511719 C 28.449219 17.125 27.847656 16.808594 26.738281 16.714844 L 26.738281 14.996094 L 24.921875 14.996094 L 24.921875 16.828125 C 24.179688 17 23.550781 17.347656 23.085938 17.84375 C 22.058594 18.933594 21.894531 20.824219 23.15625 22.035156 C 24.648438 23.460938 27.152344 23.410156 27.152344 25.066406 C 27.152344 26.351562 25.261719 27.167969 22.710938 25.46875 L 22.039062 27.339844 C 22.738281 27.835938 23.542969 28.21875 24.796875 28.320312 L 24.796875 30.109375 L 26.632812 30.109375 L 26.632812 28.21875 C 27.4375 28.03125 28.117188 27.640625 28.609375 27.078125 C 29.664062 25.871094 30.328125 22.976562 26.460938 21.398438 " fill-opacity="1" fill-rule="nonzero"/><g fill="#41bbdd" fill-opacity="1"><g transform="translate(46.634614, 21.74419)"><g><path d="M 3.109375 0 L 6.871094 0 L 6.871094 -6.480469 L 9.789062 -6.480469 L 9.789062 -9.332031 L 0.195312 -9.332031 L 0.195312 -6.480469 L 3.109375 -6.480469 Z M 3.109375 0 "/></g></g></g><g fill="#41bbdd" fill-opacity="1"><g transform="translate(56.616579, 21.74419)"><g><path d="M -0.0117188 0 L 3.875 0 L 4.34375 -1.425781 L 7.726562 -1.425781 L 8.179688 0 L 12.082031 0 L 8.308594 -9.332031 L 3.835938 -9.332031 Z M 4.925781 -3.628906 L 6.027344 -6.882812 L 6.054688 -6.882812 L 7.128906 -3.628906 Z M 4.925781 -3.628906 "/></g></g></g><g fill="#41bbdd" fill-opacity="1"><g transform="translate(68.698646, 21.74419)"><g><path d="M 0.648438 0 L 7.6875 0 C 9.996094 0 11.277344 -0.921875 11.277344 -2.566406 C 11.277344 -3.695312 10.628906 -4.460938 9.464844 -4.71875 L 9.464844 -4.746094 C 10.5 -5.054688 11.082031 -5.769531 11.082031 -6.753906 C 11.082031 -8.414062 9.761719 -9.332031 7.402344 -9.332031 L 0.648438 -9.332031 Z M 4.40625 -5.640625 L 4.40625 -7.105469 L 6.390625 -7.105469 C 6.988281 -7.105469 7.324219 -6.84375 7.324219 -6.390625 C 7.324219 -5.910156 6.988281 -5.640625 6.390625 -5.640625 Z M 4.40625 -2.242188 L 4.40625 -3.757812 L 6.585938 -3.757812 C 7.183594 -3.757812 7.519531 -3.472656 7.519531 -2.957031 C 7.519531 -2.503906 7.183594 -2.242188 6.585938 -2.242188 Z M 4.40625 -2.242188 "/></g></g></g><g fill="#41bbdd" fill-opacity="1"><g transform="translate(80.262167, 21.74419)"><g><path d="M 6.003906 0.257812 C 9.503906 0.257812 11.445312 -1.257812 11.445312 -3.992188 L 11.445312 -9.332031 L 7.6875 -9.332031 L 7.6875 -4.1875 C 7.6875 -3.164062 7.078125 -2.632812 6.003906 -2.632812 C 4.914062 -2.632812 4.316406 -3.164062 4.316406 -4.1875 L 4.316406 -9.332031 L 0.558594 -9.332031 L 0.558594 -3.992188 C 0.558594 -1.257812 2.503906 0.257812 6.003906 0.257812 Z M 6.003906 0.257812 "/></g></g></g><g fill="#41bbdd" fill-opacity="1"><g transform="translate(92.253489, 21.74419)"><g><path d="M 0.648438 0 L 4.148438 0 L 4.148438 -5.445312 L 4.175781 -5.445312 L 7.714844 0 L 12.054688 0 L 12.054688 -9.332031 L 8.554688 -9.332031 L 8.554688 -3.929688 L 8.542969 -3.929688 L 4.992188 -9.332031 L 0.648438 -9.332031 Z M 0.648438 0 "/></g></g></g><g fill="#41bbdd" fill-opacity="1"><g transform="translate(104.957808, 21.74419)"><g><path d="M 5.507812 0.234375 C 7.207031 0.234375 8.738281 -0.464844 9.359375 -1.570312 L 9.371094 -1.570312 L 9.605469 0 L 12.394531 0 L 12.394531 -5.445312 L 5.289062 -5.445312 L 5.289062 -3.566406 L 8.789062 -3.566406 C 8.648438 -2.863281 7.828125 -2.398438 6.703125 -2.398438 C 5.132812 -2.398438 4.121094 -3.265625 4.121094 -4.601562 C 4.121094 -5.9375 4.964844 -6.804688 6.234375 -6.804688 C 7.066406 -6.804688 7.726562 -6.402344 7.921875 -5.792969 L 11.40625 -6.351562 C 11.03125 -8.308594 8.996094 -9.59375 6.261719 -9.59375 C 2.695312 -9.59375 0.363281 -7.597656 0.363281 -4.539062 C 0.363281 -1.660156 2.398438 0.234375 5.507812 0.234375 Z M 5.507812 0.234375 "/></g></g></g><g fill="#41bbdd" fill-opacity="1"><g transform="translate(117.843618, 21.74419)"><g><path d="M -0.0117188 0 L 3.875 0 L 4.34375 -1.425781 L 7.726562 -1.425781 L 8.179688 0 L 12.082031 0 L 8.308594 -9.332031 L 3.835938 -9.332031 Z M 4.925781 -3.628906 L 6.027344 -6.882812 L 6.054688 -6.882812 L 7.128906 -3.628906 Z M 4.925781 -3.628906 "/></g></g></g><g fill="#41bbdd" fill-opacity="1"><g transform="translate(129.92568, 21.74419)"><g><path d="M 0.648438 0 L 4.148438 0 L 4.148438 -5.445312 L 4.175781 -5.445312 L 7.714844 0 L 12.054688 0 L 12.054688 -9.332031 L 8.554688 -9.332031 L 8.554688 -3.929688 L 8.542969 -3.929688 L 4.992188 -9.332031 L 0.648438 -9.332031 Z M 0.648438 0 "/></g></g></g><g fill="#3972bf" fill-opacity="1"><g transform="translate(65.879161, 32.476931)"><g><path d="M 4.59375 -2.0625 L 2.296875 -2.0625 L 1.609375 0 L 0.15625 0 L 2.625 -6.859375 L 4.34375 -6.859375 L 6.765625 0 L 5.28125 0 Z M 3.453125 -5.6875 L 2.640625 -3.15625 L 4.25 -3.15625 Z M 3.453125 -5.6875 "/></g></g></g><g fill="#3972bf" fill-opacity="1"><g transform="translate(75.080217, 32.476931)"><g><path d="M 6.90625 0 L 5.03125 0 L 2.203125 -5.203125 C 2.234375 -4.578125 2.25 -3.875 2.25 -3.09375 L 2.25 0 L 0.890625 0 L 0.890625 -6.859375 L 2.703125 -6.859375 L 5.578125 -1.546875 C 5.546875 -2.160156 5.53125 -2.878906 5.53125 -3.703125 L 5.53125 -6.859375 L 6.890625 -6.859375 Z M 6.90625 0 "/></g></g></g><g fill="#3972bf" fill-opacity="1"><g transform="translate(85.115848, 32.476931)"><g><path d="M 4.59375 -2.0625 L 2.296875 -2.0625 L 1.609375 0 L 0.15625 0 L 2.625 -6.859375 L 4.34375 -6.859375 L 6.765625 0 L 5.28125 0 Z M 3.453125 -5.6875 L 2.640625 -3.15625 L 4.25 -3.15625 Z M 3.453125 -5.6875 "/></g></g></g><g fill="#3972bf" fill-opacity="1"><g transform="translate(94.316905, 32.476931)"><g><path d="M 6.90625 0 L 5.03125 0 L 2.203125 -5.203125 C 2.234375 -4.578125 2.25 -3.875 2.25 -3.09375 L 2.25 0 L 0.890625 0 L 0.890625 -6.859375 L 2.703125 -6.859375 L 5.578125 -1.546875 C 5.546875 -2.160156 5.53125 -2.878906 5.53125 -3.703125 L 5.53125 -6.859375 L 6.890625 -6.859375 Z M 6.90625 0 "/></g></g></g><g fill="#3972bf" fill-opacity="1"><g transform="translate(104.352535, 32.476931)"><g><path d="M 4.125 -6.8125 C 4.96875 -6.71875 5.648438 -6.394531 6.171875 -5.84375 C 6.691406 -5.289062 6.953125 -4.515625 6.953125 -3.515625 C 6.953125 -2.503906 6.6875 -1.695312 6.15625 -1.09375 C 5.625 -0.488281 4.941406 -0.140625 4.109375 -0.046875 C 3.867188 -0.015625 3.578125 0 3.234375 0 L 0.890625 0 L 0.890625 -6.859375 L 3.25 -6.859375 C 3.601562 -6.859375 3.894531 -6.84375 4.125 -6.8125 Z M 3.796875 -1.109375 C 4.316406 -1.179688 4.726562 -1.425781 5.03125 -1.84375 C 5.34375 -2.257812 5.5 -2.8125 5.5 -3.5 C 5.5 -4.15625 5.347656 -4.675781 5.046875 -5.0625 C 4.742188 -5.445312 4.335938 -5.675781 3.828125 -5.75 C 3.617188 -5.769531 3.375 -5.78125 3.09375 -5.78125 L 2.25 -5.78125 L 2.25 -1.078125 L 3.078125 -1.078125 C 3.410156 -1.078125 3.648438 -1.085938 3.796875 -1.109375 Z M 3.796875 -1.109375 "/></g></g></g><g fill="#3972bf" fill-opacity="1"><g transform="translate(114.100045, 32.476931)"><g><path d="M 4.59375 -2.0625 L 2.296875 -2.0625 L 1.609375 0 L 0.15625 0 L 2.625 -6.859375 L 4.34375 -6.859375 L 6.765625 0 L 5.28125 0 Z M 3.453125 -5.6875 L 2.640625 -3.15625 L 4.25 -3.15625 Z M 3.453125 -5.6875 "/></g></g></g></svg>